<?xml version="1.0" encoding="utf-8"?>
<!-- Generator: Adobe Illustrator 18.0.0, SVG Export Plug-In . SVG Version: 6.00 Build 0)  -->
<!DOCTYPE svg PUBLIC "-//W3C//DTD SVG 1.1//EN" "http://www.w3.org/Graphics/SVG/1.1/DTD/svg11.dtd">
<svg version="1.1" id="Layer_1" xmlns="http://www.w3.org/2000/svg" xmlns:xlink="http://www.w3.org/1999/xlink" x="0px" y="0px"
	 viewBox="0 0 612 792" enable-background="new 0 0 612 792" xml:space="preserve">
<g>
	<path fill="none" d="M-1.8,392.9c-9.2,0-19.6,4.9-24.5,12.2v37.9c4.9,6.7,15.3,12.2,24.5,12.2c16.5,0,27.5-12.9,27.5-31.8
		C25.7,405.8,14.7,392.9-1.8,392.9z"/>
	<g>
		<g>
			<rect x="15.9" y="204.4" fill="#FFFFFF" width="47.7" height="378.2"/>
			<path fill="#FFFFFF" d="M568.5,104.1H116.3v47.7h431.5v265.6l0,0v175.6l-42.2,42.2h-53.9H327.4H63.6v-82.6H15.9v104
				c0,15.3,12.2,26.3,26.3,26.3h285.2h124.2h61.8c7.3,0,15.3-3.1,20.2-8l54.5-54.5c4.9-4.9,8-12.2,8-20.2V538V418.6v-287
				C596.1,116.3,583.8,104.1,568.5,104.1z"/>
			<path fill="#FFFFFF" d="M96.1,104.1h-11c-4.9,0-9.2,1.8-12.2,4.9L22,159.8c-3.1,3.1-4.9,8-4.9,12.2v12.2h79.6v-79.6h-0.6V104.1z"
				/>
		</g>
	</g>
</g>
<path fill="#4C9AD4" d="M485.8,280.2c-16.1,0-31.3,0.5-43.7,0.9c-3.2-4.2-7.4-7.1-12.4-7.1c-5.5,0-10.6,3.8-13.8,9.4
	c-0.5,0-1.4,0-1.8,0.5c-12-2.4-27.2-3.8-45.6-3.8c-46,0-56.6,21.7-10.6,21.7c21.2,0,40-0.9,54.8-1.9c1.4,3.8,6,6.1,11,7.1v7.5
	c-6.4,1.4-11.5,4.2-11.5,9.4c0,1.4,0,3.3,0.5,4.7h-88.4c-7.4-6.1-17-9.9-27.2-9.9s-19.8,3.8-27.2,9.9h-80.5c0-1.4,0.5-2.8,0.5-4.7
	c0-5.2-5.1-8.5-11.5-9.4V307c5.5-0.9,10.1-3.8,11.5-7.5c10.1,1.4,22.5,2.4,36.4,2.4c46,0,56.6-21.7,10.6-21.7
	c-19.3,0-37.3,0.5-51.5,1.4c-3.2-4.7-7.8-7.5-12.4-7.5c-5.5,0-10.1,3.3-13.3,9c-11-1.9-24.4-2.8-40-2.8c-46,0-56.6,21.7-10.6,21.7
	c17.5,0,33.6-0.5,47.4-1.4c1.4,3.8,6,5.7,11,6.6v7.5c-6.4,1.4-11.5,4.2-11.5,9.4c0,13.7,7.8,24.5,17.5,24.5c3.7,0,6.9-1.4,9.7-4.2
	h33.6l-48.8,103.7c-2.3,4.7-0.5,10.8,4.6,12.7c4.6,2.4,10.6,0.5,12.4-4.7L235.5,348c0.5-1.4,0.9-2.8,0.9-4.2h22.5
	c-1.8,4.2-3.2,9.4-3.7,14.6h-5.1c-9.2,0-17,8-17,17.4v52.3c0,9.4,7.8,17.4,17,17.4h20.2c6.4,9,16.6,15.1,28.1,15.1
	c11.5,0,22.1-6.1,28.1-15.1h20.2c9.2,0,17-8,17-17.4v-51.4c0-9.4-7.8-17.4-17-17.4h-5.1c-0.5-5.2-1.8-9.9-3.7-14.6h22.5
	c0,1.4,0.5,2.8,0.9,4.2l50.6,107.9c2.3,4.7,7.8,7.1,12.4,4.7c4.6-2.4,6.9-8,4.6-12.7l-48.8-103.7h41.4c2.8,2.4,6,4.2,9.7,4.2
	c9.7,0,17.5-10.8,17.5-24.5c0-5.2-5.1-8.5-11.5-9.4V308c5.1-0.9,9.7-3.3,11-6.6c8.7,0.9,18.4,1.4,29,1.4
	C521.7,301.8,531.8,280.2,485.8,280.2z M261.2,382c-6.9,0-12.9-3.3-12.9-7.1s6-7.1,12.9-7.1s12.9,3.3,12.9,7.1S268.1,382,261.2,382z
	 M297.1,436.6c-13.3,0-23.9-10.8-23.9-24.5s10.6-24.5,23.9-24.5c13.3,0,23.9,10.8,23.9,24.5C321.1,425.3,310.5,436.6,297.1,436.6z"
	/>
</svg>
