<?xml version="1.0" encoding="utf-8"?>
<!-- Generator: Adobe Illustrator 18.0.0, SVG Export Plug-In . SVG Version: 6.00 Build 0)  -->
<!DOCTYPE svg PUBLIC "-//W3C//DTD SVG 1.1//EN" "http://www.w3.org/Graphics/SVG/1.1/DTD/svg11.dtd">
<svg version="1.1" id="Layer_1" xmlns="http://www.w3.org/2000/svg" xmlns:xlink="http://www.w3.org/1999/xlink" x="0px" y="0px"
	 viewBox="-5.7 307.5 617.7 184" enable-background="new -5.7 307.5 617.7 184" xml:space="preserve">
<text transform="matrix(1.0133 0 0 1 226.9743 428.0909)" fill="#FFFFFF" font-family="'HelveticaNeue-UltraLight'" font-size="77.0054">smalldrones</text>
<path fill="#FCFCFC" d="M205.1,361.1c-8.4,0-16.2,0.3-22.7,0.5c-1.7-2.3-3.8-3.8-6.4-3.8c-2.9,0-5.5,2-7.2,5.1c-0.2,0-0.7,0-1,0.3
	c-6.2-1.3-14.1-2-23.6-2c-23.9,0-29.3,11.7-5.5,11.7c11,0,20.8-0.5,28.4-1c0.7,2,3.1,3.3,5.7,3.8v4.1c-3.3,0.8-6,2.3-6,5.1
	c0,0.8,0,1.8,0.2,2.5h-45.8c-3.8-3.3-8.8-5.3-14.1-5.3c-5.2,0-10.3,2-14.1,5.3H51.5c0-0.8,0.2-1.5,0.2-2.5c0-2.8-2.6-4.6-6-5.1v-4.1
	c2.9-0.5,5.2-2,6-4.1c5.2,0.8,11.7,1.3,18.8,1.3c23.9,0,29.3-11.7,5.5-11.7c-10,0-19.3,0.3-26.7,0.8c-1.7-2.5-4.1-4.1-6.4-4.1
	c-2.9,0-5.2,1.8-6.9,4.8c-5.7-1-12.6-1.5-20.8-1.5c-23.9,0-29.3,11.7-5.5,11.7c9.1,0,17.4-0.3,24.6-0.8c0.7,2,3.1,3.1,5.7,3.6v4.1
	c-3.3,0.8-6,2.3-6,5.1c0,7.4,4.1,13.2,9.1,13.2c1.9,0,3.6-0.8,5-2.3h17.4l-25.3,56c-1.2,2.5-0.2,5.8,2.4,6.9
	c2.4,1.3,5.5,0.3,6.4-2.5l26.2-58.2c0.2-0.8,0.5-1.5,0.5-2.3h11.7c-1,2.3-1.7,5.1-1.9,7.9H83c-4.8,0-8.8,4.3-8.8,9.4v28.2
	c0,5.1,4.1,9.4,8.8,9.4h10.5c3.3,4.8,8.6,8.1,14.6,8.1s11.5-3.3,14.6-8.1h10.5c4.8,0,8.8-4.3,8.8-9.4v-27.7c0-5.1-4.1-9.4-8.8-9.4
	h-2.6c-0.2-2.8-1-5.3-1.9-7.9h11.7c0,0.8,0.2,1.5,0.5,2.3l26.2,58.2c1.2,2.5,4.1,3.8,6.4,2.5c2.4-1.3,3.6-4.3,2.4-6.9l-25.3-56h21.5
	c1.4,1.3,3.1,2.3,5,2.3c5,0,9.1-5.8,9.1-13.2c0-2.8-2.6-4.6-6-5.1v-4.1c2.6-0.5,5-1.8,5.7-3.6c4.5,0.5,9.5,0.8,15,0.8
	C223.7,372.8,229,361.1,205.1,361.1z M88.7,416c-3.6,0-6.7-1.8-6.7-3.8c0-2,3.1-3.8,6.7-3.8c3.6,0,6.7,1.8,6.7,3.8
	C95.4,414.2,92.3,416,88.7,416z M107.3,445.5c-6.9,0-12.4-5.8-12.4-13.2c0-7.4,5.5-13.2,12.4-13.2c6.9,0,12.4,5.8,12.4,13.2
	C119.7,439.4,114.2,445.5,107.3,445.5z"/>
</svg>
